<svg viewBox="0 0 32 32" xmlns="http://www.w3.org/2000/svg">
  <path d="M30.933 8.217c-.28-1.55-1.62-2.68-3.172-3.032-2.325-.493-6.627-.846-11.28-.846-4.652 0-9.023.353-11.35.846-1.55.352-2.892 1.41-3.172 3.032-.284 1.762-.565 4.23-.565 7.402 0 3.173.28 5.64.633 7.403.284 1.55 1.623 2.68 3.173 3.032 2.468.493 6.698.846 11.352.846s8.884-.353 11.352-.846c1.55-.352 2.889-1.41 3.172-3.032.281-1.762.634-4.302.705-7.403-.143-3.172-.495-5.64-.848-7.402ZM12.674 20.555v-9.87l8.601 4.934z" style="stroke-width:.705019"/>
</svg>
